OpenSim_Sub08_CSBaseline_GRF.mot
version=1
nRows=71
nColumns=19
inDegrees=no
endheader
time	lFx	lFy	lFz	lCOPx	lCOPy	lCOPz	rFx	rFy	rFz	rCOPx	rCOPy	rCOPz	lMx	lMy	lMz	rMx	rMy	rMz
0	-2.48819614	266.78468247	23.46682988	0.67834417	0	-0.67670172	0.02050213	269.18550390	-22.23459742	0.70734237	0	-0.38373215	0	1.54347746	0	0	0.36517190	0.00000000
0.01000000	-2.73336681	266.84516200	23.37229075	0.68013092	0	-0.67701860	-0.30374866	269.16359697	-22.08396184	0.70608561	0	-0.38345298	0	1.40731299	0	0	0.39015402	0
0.02000000	-2.87211680	266.82774013	23.26588127	0.68115065	0	-0.67721012	-0.51407486	269.14415795	-21.99844578	0.70552639	0	-0.38327031	0	1.33224386	0	0	0.38546352	0
0.03000000	-2.91431222	266.79810735	23.18068797	0.68151319	0	-0.67728342	-0.62540538	269.11950202	-21.96334408	0.70541795	0	-0.38318494	0	1.30692922	0	0	0.37770115	0
0.04000000	-2.90610073	266.84583753	23.13644514	0.68153342	0	-0.67730150	-0.69751088	269.10911785	-21.95538274	0.70542535	0	-0.38313789	0	1.32234566	0	0	0.37324274	0
0.05000000	-2.85855352	266.97313382	23.14097598	0.68148836	0	-0.67729258	-0.74007237	269.10002839	-21.98202469	0.70547468	0	-0.38311537	0	1.35324485	0	0	0.38507839	0
0.06000000	-2.77934025	267.16065747	23.18726247	0.68146145	0	-0.67725853	-0.75094981	269.06556982	-22.03158984	0.70551632	0	-0.38312761	0	1.36535059	0	0	0.41345691	0
0.07000000	-2.71099146	267.31311721	23.24066012	0.68145873	0	-0.67721748	-0.73534208	269.08233978	-22.06351920	0.70566800	0	-0.38312150	0	1.36022345	0	0	0.42842154	0
0.08000000	-2.68558373	267.35123336	23.24819116	0.68145740	0	-0.67722948	-0.70651566	269.12749919	-22.06669739	0.70598854	0	-0.38311431	0	1.34154319	0	0	0.42326451	0
0.09000000	-2.68355858	267.30367016	23.21782162	0.68144717	0	-0.67731795	-0.66213841	269.12405508	-22.05369118	0.70632128	0	-0.38316183	0	1.31066377	0	0	0.41007081	0.00000000
0.10000000	-2.66575564	267.21251936	23.17871749	0.68146444	0	-0.67741127	-0.60222751	269.07806303	-22.03325637	0.70650724	0	-0.38323202	0	1.28953586	0	0	0.39848232	0
0.11000000	-2.62167747	267.08655282	23.14163214	0.68155462	0	-0.67744444	-0.52173037	269.05529660	-22.00101935	0.70656332	0	-0.38326084	0	1.28380557	0	0	0.37988333	0
0.12000000	-2.57909659	266.89866594	23.09843331	0.68165306	0	-0.67740736	-0.42004754	269.06902999	-21.97386093	0.70651082	0	-0.38326909	0	1.28867930	0	0	0.36891542	0
0.13000000	-2.56145384	266.68785596	23.04969246	0.68177411	0	-0.67734591	-0.32195987	269.10485870	-21.95119844	0.70637560	0	-0.38328753	0	1.29514565	0	0	0.37457583	0
0.14000000	-2.57052033	266.56138707	23.01608808	0.68178299	0	-0.67726666	-0.25025626	269.17515929	-21.93125409	0.70615727	0	-0.38329938	0	1.30376932	0	0	0.38228210	0
0.15000000	-2.59085200	266.56662233	23.01074680	0.68168752	0	-0.67720751	-0.21357321	269.23748695	-21.93474481	0.70585879	0	-0.38328556	0	1.30880359	0	0	0.39492891	0
0.16000000	-2.60104468	266.62550425	23.01711224	0.68166661	0	-0.67720877	-0.20397229	269.24474716	-21.96155287	0.70551484	0	-0.38326684	0	1.30830358	0	0	0.40645686	0.00000000
0.17000000	-2.59858674	266.60391041	23.02976953	0.68175554	0	-0.67726166	-0.21447984	269.20518739	-22.01617208	0.70528149	0	-0.38330584	0	1.30550548	0	0	0.41054409	0
0.18000000	-2.60877490	266.46776137	23.03914981	0.68191080	0	-0.67731904	-0.23210651	269.24792741	-22.08081862	0.70544337	0	-0.38332839	0	1.30605041	0	0	0.40052562	0
0.19000000	-2.63275552	266.29009402	23.04299806	0.68210909	0	-0.67734536	-0.26679401	269.40029543	-22.10313579	0.70587348	0	-0.38328195	0	1.31170014	0	0	0.37445124	0
0.20000000	-2.65418227	266.08984204	23.04176791	0.68231414	0	-0.67733115	-0.30705280	269.59194598	-22.08547756	0.70632683	0	-0.38320411	0	1.32012948	0	0	0.34488460	0
0.21000000	-2.65878253	265.88912399	23.01509616	0.68247468	0	-0.67728798	-0.34230819	269.70194385	-22.06091043	0.70655909	0	-0.38315306	0	1.33353269	0	0	0.33179390	0
0.22000000	-2.63862710	265.71915539	22.96934741	0.68258227	0	-0.67723827	-0.36678906	269.68123866	-22.04955639	0.70653915	0	-0.38314936	0	1.34946465	0	0	0.34591196	0
0.23000000	-2.60356548	265.52327096	22.91590409	0.68264357	0	-0.67719813	-0.39382492	269.63693348	-22.04882462	0.70647430	0	-0.38316977	0	1.35810611	0	0	0.37301554	0.00000000
0.24000000	-2.57519886	265.28066249	22.85313894	0.68269203	0	-0.67719197	-0.42547039	269.65076561	-22.06550708	0.70644186	0	-0.38318462	0	1.37645515	0	0	0.40286949	0
0.25000000	-2.55179123	265.03248398	22.80091351	0.68277931	0	-0.67719901	-0.44524978	269.73428756	-22.08540010	0.70641151	0	-0.38316458	0	1.40542136	0	0	0.43235091	0
0.26000000	-2.54749942	264.78152953	22.76531713	0.68293372	0	-0.67722368	-0.44683979	269.90089850	-22.09833596	0.70642385	0	-0.38307896	0	1.41981714	0	0	0.44898246	0
0.27000000	-2.56896285	264.55696816	22.74993805	0.68305673	0	-0.67724666	-0.43763326	270.15801852	-22.12489132	0.70651003	0	-0.38292144	0	1.40328934	0	0	0.45545766	-0.00000000
0.28000000	-2.59738168	264.40758212	22.76966256	0.68308416	0	-0.67719981	-0.43124533	270.43001425	-22.17976471	0.70666683	0	-0.38275524	0	1.38050089	0	0	0.46473548	0.00000000
0.29000000	-2.62715983	264.36918572	22.81407612	0.68305111	0	-0.67710201	-0.44354397	270.61110225	-22.24557667	0.70685059	0	-0.38262474	0	1.37453942	0	0	0.47142464	0
0.30000000	-2.65308911	264.40431655	22.84889644	0.68303417	0	-0.67703744	-0.48191377	270.65407561	-22.31489992	0.70699766	0	-0.38254665	0	1.38430214	0	0	0.47604132	0.00000000
0.31000000	-2.66256848	264.42397861	22.83852937	0.68311194	0	-0.67706715	-0.54007946	270.60288552	-22.36388599	0.70721451	0	-0.38252050	0	1.38879763	0	0	0.47902637	0
0.32000000	-2.66337248	264.43193404	22.80174083	0.68327788	0	-0.67715518	-0.61597716	270.50362171	-22.38348506	0.70751195	0	-0.38250991	0	1.38456569	0	0	0.48130469	-0.00000000
0.33000000	-2.65420707	264.45877601	22.75832730	0.68353355	0	-0.67725589	-0.69716521	270.36213463	-22.38344504	0.70780662	0	-0.38249021	0	1.37403454	0	0	0.48226826	0
0.34000000	-2.65220801	264.53107958	22.72697761	0.68370305	0	-0.67732186	-0.77916282	270.22311330	-22.38670556	0.70800080	0	-0.38247002	0	1.36779306	0	0	0.48841042	0.00000000
0.35000000	-2.66243868	264.69637358	22.72733773	0.68365766	0	-0.67733209	-0.85598103	270.08057330	-22.39303629	0.70805580	0	-0.38248576	0	1.38500519	0	0	0.50399260	-0.00000000
0.36000000	-2.67545248	264.83510526	22.74596722	0.68356470	0	-0.67727094	-0.92909726	269.95420781	-22.39119945	0.70813765	0	-0.38254575	0	1.41501846	0	0	0.52654619	0
0.37000000	-2.68797217	264.83218957	22.75697510	0.68361275	0	-0.67717680	-0.99679109	269.90519388	-22.39074702	0.70838237	0	-0.38261835	0	1.43790275	0	0	0.53779784	0
0.38000000	-2.68605893	264.70829907	22.76612632	0.68380541	0	-0.67713619	-1.03926268	269.97056957	-22.39212140	0.70866980	0	-0.38262085	0	1.43680990	0	0	0.51476384	0
0.39000000	-2.66470612	264.53696598	22.78332418	0.68396406	0	-0.67715208	-1.05675068	270.13933939	-22.39823977	0.70886174	0	-0.38254609	0	1.40669297	0	0	0.48048981	-0.00000000
0.40000000	-2.63767164	264.39857430	22.80487901	0.68404871	0	-0.67721887	-1.06389981	270.30960696	-22.42487007	0.70893793	0	-0.38249801	0	1.37128687	0	0	0.46477643	0
0.41000000	-2.61182185	264.31565900	22.81659064	0.68411931	0	-0.67730060	-1.05726508	270.50370232	-22.44239927	0.70888001	0	-0.38244387	0	1.35140228	0	0	0.46652141	-0.00000000
0.42000000	-2.58244231	264.25778423	22.82034739	0.68408225	0	-0.67732676	-1.03240774	270.74815224	-22.45026450	0.70869824	0	-0.38237343	0	1.33825521	0	0	0.48210358	-0.00000000
0.43000000	-2.56234887	264.19350461	22.80849319	0.68388522	0	-0.67730031	-0.99059438	270.99722888	-22.46765089	0.70854415	0	-0.38231852	0	1.33578854	0	0	0.49183022	0
0.44000000	-2.54647186	264.16063602	22.78242126	0.68363260	0	-0.67722625	-0.93851102	271.17029584	-22.48514386	0.70837185	0	-0.38233271	0	1.34478593	0	0	0.48149514	0
0.45000000	-2.53333968	264.20380358	22.78161407	0.68343119	0	-0.67714109	-0.88029682	271.31462515	-22.48931442	0.70820951	0	-0.38239464	0	1.35650347	0	0	0.46006652	0
0.46000000	-2.51260837	264.24647999	22.80682587	0.68338319	0	-0.67708855	-0.83913822	271.48133275	-22.48239137	0.70819898	0	-0.38247223	0	1.36146025	0	0	0.44736168	0
0.47000000	-2.49317044	264.19510579	22.81404808	0.68351395	0	-0.67710415	-0.83645220	271.59514402	-22.46509573	0.70819560	0	-0.38251975	0	1.36269608	0	0	0.45162506	0
0.48000000	-2.48627815	264.06425270	22.78919333	0.68375982	0	-0.67715754	-0.85082546	271.60220411	-22.45197811	0.70816414	0	-0.38252812	0	1.35989389	0	0	0.46655786	0.00000000
0.49000000	-2.46678662	263.87340134	22.73624730	0.68409503	0	-0.67718061	-0.85683122	271.51993314	-22.44165116	0.70809959	0	-0.38250176	0	1.36056452	0	0	0.48309857	0.00000000
0.50000000	-2.42824362	263.65737992	22.68727714	0.68438808	0	-0.67715788	-0.83996995	271.39614371	-22.42762739	0.70801329	0	-0.38243286	0	1.36347813	0	0	0.49816408	0
0.51000000	-2.38212488	263.44579487	22.65282227	0.68459350	0	-0.67711035	-0.80744778	271.26901086	-22.41562341	0.70793867	0	-0.38237645	0	1.37273039	0	0	0.50100510	0
0.52000000	-2.34743585	263.23290827	22.62480004	0.68468538	0	-0.67707199	-0.76464115	271.25164529	-22.41589699	0.70788706	0	-0.38234484	0	1.38261024	0	0	0.48581255	0.00000000
0.53000000	-2.32529465	263.03377334	22.59257914	0.68457870	0	-0.67706513	-0.72096950	271.37831512	-22.43773720	0.70785101	0	-0.38232917	0	1.38705198	0	0	0.47184581	0
0.54000000	-2.32543812	262.88744071	22.56753414	0.68432223	0	-0.67707175	-0.67885857	271.56565491	-22.47386132	0.70782705	0	-0.38232746	0	1.38540579	0	0	0.47884015	0
0.55000000	-2.35062911	262.81372306	22.55362477	0.68409695	0	-0.67709345	-0.64006631	271.75109831	-22.50433291	0.70773096	0	-0.38228861	0	1.38564811	0	0	0.49849111	-0.00000000
0.56000000	-2.39529370	262.76565262	22.54055275	0.68404635	0	-0.67713491	-0.61041875	271.91948696	-22.52178391	0.70768652	0	-0.38219743	0	1.38596091	0	0	0.50848402	0
0.57000000	-2.43021424	262.66571097	22.52419797	0.68420520	0	-0.67719002	-0.59468185	272.08265581	-22.53967884	0.70785085	0	-0.38212125	0	1.37640130	0	0	0.50479555	-0.00000000
0.58000000	-2.45188089	262.42950648	22.51031891	0.68438427	0	-0.67718674	-0.59376720	272.22705038	-22.57555962	0.70818248	0	-0.38211203	0	1.36583847	0	0	0.50376134	0
0.59000000	-2.47503876	262.06290208	22.52276365	0.68433781	0	-0.67706850	-0.60705780	272.42986547	-22.61727464	0.70860653	0	-0.38212030	0	1.36179278	0	0	0.50616188	0
0.60000000	-2.47208122	261.65093505	22.54736555	0.68415084	0	-0.67695988	-0.64143804	272.70418758	-22.66549130	0.70895047	0	-0.38210709	0	1.36355881	0	0	0.52150081	0
0.61000000	-2.43801830	261.29454272	22.55961580	0.68399757	0	-0.67694109	-0.70669649	273.00343706	-22.72424581	0.70914738	0	-0.38203005	0	1.37087986	0	0	0.55065550	0
0.62000000	-2.39771789	261.05205265	22.55493033	0.68381907	0	-0.67695866	-0.78054516	273.27177328	-22.79674809	0.70934689	0	-0.38192449	0	1.39218159	0	0	0.58035734	0
0.63000000	-2.34505715	260.87905205	22.54796949	0.68359150	0	-0.67694196	-0.85737961	273.46887904	-22.87838869	0.70958115	0	-0.38182252	0	1.41177575	0	0	0.59579847	0
0.64000000	-2.27856211	260.69121060	22.54191822	0.68331682	0	-0.67684878	-0.92841462	273.62340178	-22.95215747	0.70973380	0	-0.38170627	0	1.41684288	0	0	0.59372460	0
0.65000000	-2.23697380	260.44434139	22.50650053	0.68304158	0	-0.67675434	-0.96772226	273.74768875	-22.99032195	0.70986065	0	-0.38160803	0	1.40770587	0	0	0.57711060	0
0.66000000	-2.22105260	260.12722750	22.45626760	0.68298087	0	-0.67667835	-0.96582653	273.83502330	-22.99240294	0.71005833	0	-0.38155953	0	1.39208548	0	0	0.57230286	0
0.67000000	-2.21133508	259.78671872	22.41552741	0.68313645	0	-0.67663304	-0.95955617	273.84435978	-23.01204264	0.71013713	0	-0.38159438	0	1.39490723	0	0	0.58975647	0
0.68000000	-2.18681240	259.27745652	22.36729975	0.68334313	0	-0.67659073	-0.98361365	273.88608837	-23.06979937	0.71012310	0	-0.38165131	0	1.41422428	0	0	0.61896222	0
0.69000000	-2.14061045	258.41718863	22.29328003	0.68338083	0	-0.67653353	-1.05081025	274.17062654	-23.12724394	0.71020661	0	-0.38162515	0	1.44135198	0	0	0.64385427	0
0.70000000	-2.08572573	257.16669842	22.19771742	0.68317957	0	-0.67644409	-1.14436197	274.75221915	-23.18840414	0.71037282	0	-0.38148725	0	1.46922638	0	0	0.66235326	0
